<!-- Generated by IcoMoon.io -->
<svg version="1.1" xmlns="http://www.w3.org/2000/svg" width="11" height="20" viewBox="0 0 11 20">
<title>css-tricks</title>
<path fill="#fff" d="M3.214 16.429c0-0.592-0.48-1.071-1.071-1.071s-1.071 0.48-1.071 1.071 0.48 1.071 1.071 1.071 1.071-0.48 1.071-1.071zM3.214 3.571c0-0.592-0.48-1.071-1.071-1.071s-1.071 0.48-1.071 1.071 0.48 1.071 1.071 1.071 1.071-0.48 1.071-1.071zM10.357 5c0-0.592-0.48-1.071-1.071-1.071s-1.071 0.48-1.071 1.071 0.48 1.071 1.071 1.071 1.071-0.48 1.071-1.071zM11.429 5c0 0.792-0.435 1.484-1.071 1.853-0.033 4.029-2.891 4.922-4.788 5.525-1.775 0.558-2.355 0.826-2.355 1.908v0.29c0.636 0.368 1.071 1.060 1.071 1.853 0 1.183-0.96 2.143-2.143 2.143s-2.143-0.96-2.143-2.143c0-0.792 0.435-1.484 1.071-1.853v-9.152c-0.636-0.368-1.071-1.060-1.071-1.853 0-1.183 0.96-2.143 2.143-2.143s2.143 0.96 2.143 2.143c0 0.792-0.435 1.484-1.071 1.853v5.547c0.569-0.279 1.172-0.469 1.719-0.636 2.076-0.658 3.259-1.15 3.281-3.482-0.636-0.368-1.071-1.060-1.071-1.853 0-1.183 0.96-2.143 2.143-2.143s2.143 0.96 2.143 2.143z"></path>
</svg>
