<!-- Generated by IcoMoon.io -->
<svg version="1.1" xmlns="http://www.w3.org/2000/svg" width="20" height="20" viewBox="0 0 20 20">
<title>javascript</title>
<path fill="#fff" d="M-0.002 0h20v20h-20zM18.359 15.23c-0.146-0.912-0.74-1.679-2.503-2.394-0.613-0.287-1.295-0.488-1.498-0.95-0.076-0.275-0.088-0.425-0.038-0.588 0.125-0.538 0.762-0.7 1.263-0.55 0.325 0.1 0.625 0.35 0.813 0.75 0.862-0.563 0.862-0.563 1.463-0.938-0.225-0.35-0.337-0.501-0.488-0.65-0.525-0.588-1.224-0.887-2.362-0.862l-0.588 0.074c-0.563 0.137-1.1 0.438-1.425 0.838-0.95 1.076-0.676 2.951 0.474 3.726 1.138 0.85 2.801 1.037 3.013 1.838 0.2 0.975-0.725 1.288-1.638 1.175-0.676-0.15-1.050-0.488-1.463-1.113l-1.525 0.876c0.175 0.4 0.375 0.574 0.675 0.924 1.45 1.463 5.075 1.388 5.726-0.837 0.024-0.075 0.2-0.588 0.062-1.375zM10.873 9.193h-1.873c0 1.615-0.008 3.22-0.008 4.838 0 1.027 0.053 1.969-0.115 2.259-0.275 0.574-0.983 0.501-1.305 0.4-0.33-0.163-0.498-0.388-0.692-0.713-0.053-0.088-0.092-0.163-0.106-0.163l-1.521 0.938c0.254 0.525 0.625 0.977 1.103 1.264 0.713 0.425 1.67 0.563 2.673 0.338 0.652-0.188 1.215-0.576 1.509-1.176 0.425-0.775 0.335-1.725 0.331-2.788 0.010-1.712 0-3.424 0-5.149z"></path>
</svg>
