<!-- Generated by IcoMoon.io -->
<svg version="1.1" xmlns="http://www.w3.org/2000/svg" width="20" height="20" viewBox="0 0 20 20">
<title>podcast</title>
<path fill="#fff" d="M12.396 13.136c0 0.7-0.074 1.4-0.18 2.089-0.159 1.103-0.318 2.237-0.583 3.319-0.191 0.774-0.912 0.954-1.612 0.954s-1.421-0.18-1.612-0.954c-0.265-1.081-0.424-2.216-0.583-3.319-0.106-0.689-0.18-1.389-0.18-2.089 0-1.431 1.156-1.781 2.375-1.781s2.375 0.35 2.375 1.781zM18.142 8.641c0 3.435-2.121 6.372-5.132 7.57-0.117 0.042-0.244-0.064-0.223-0.191 0.032-0.223 0.064-0.456 0.106-0.7 0.021-0.17 0.042-0.339 0.064-0.498 0.011-0.064 0.042-0.106 0.095-0.127 2.205-1.124 3.732-3.414 3.732-6.054 0-3.87-3.244-6.987-7.157-6.775-3.584 0.191-6.436 3.244-6.415 6.828 0.021 2.64 1.559 4.92 3.775 6.022 0.053 0.021 0.085 0.074 0.095 0.127 0.021 0.148 0.042 0.307 0.064 0.477 0.042 0.254 0.074 0.488 0.117 0.721 0.021 0.127-0.117 0.233-0.233 0.18-3.149-1.23-5.344-4.368-5.163-7.984 0.201-4.103 3.509-7.464 7.613-7.719 4.729-0.297 8.662 3.456 8.662 8.122zM12.396 8.301c0 1.315-1.060 2.375-2.375 2.375s-2.375-1.060-2.375-2.375 1.060-2.375 2.375-2.375 2.375 1.060 2.375 2.375zM15.449 8.641c0 1.749-0.838 3.319-2.121 4.305-0.106 0.085-0.254 0.011-0.276-0.127-0.032-0.297-0.117-0.647-0.307-0.975-0.042-0.064-0.032-0.148 0.032-0.212 0.806-0.742 1.315-1.802 1.315-2.99 0-2.396-2.089-4.315-4.538-4.050-1.877 0.212-3.403 1.76-3.584 3.647-0.138 1.336 0.392 2.566 1.293 3.393 0.064 0.064 0.074 0.148 0.032 0.212-0.191 0.329-0.276 0.679-0.307 0.986-0.021 0.127-0.17 0.201-0.276 0.117-1.315-1.018-2.152-2.619-2.121-4.421 0.064-2.82 2.354-5.174 5.163-5.301 3.117-0.148 5.694 2.333 5.694 5.418z"></path>
</svg>
