<svg id="Layer_1" data-name="Layer 1" xmlns="http://www.w3.org/2000/svg" viewBox="0 0 300 80"><defs><style>.cls-1{fill:#2188ff;}</style></defs><path class="cls-1" d="M4.32,43.83c0-9.15,7-15.88,16.37-15.88,4.55,0,8.65,1.51,11.42,4.55L30,34.59a12.4,12.4,0,0,0-9.23-3.7c-7.54,0-13.21,5.53-13.21,12.94s5.67,12.93,13.21,12.93A12.22,12.22,0,0,0,30,53l2.1,2.1A15.2,15.2,0,0,1,20.64,59.7C11.28,59.7,4.32,53,4.32,43.83Z"/><path class="cls-1" d="M35.09,47.71A11.54,11.54,0,0,1,47,35.8,11.5,11.5,0,0,1,59,47.71,11.54,11.54,0,0,1,47,59.66,11.58,11.58,0,0,1,35.09,47.71Zm20.65,0c0-5.49-3.7-9.15-8.7-9.15s-8.74,3.66-8.74,9.15,3.75,9.14,8.74,9.14S55.74,53.19,55.74,47.71Z"/><path class="cls-1" d="M86.83,26.34v33.1h-3V54.8a10.16,10.16,0,0,1-9.05,4.86c-6.69,0-11.69-4.86-11.69-11.95s5-11.91,11.69-11.91a10.22,10.22,0,0,1,8.92,4.64V26.34ZM83.7,47.71c0-5.49-3.74-9.15-8.69-9.15s-8.74,3.66-8.74,9.15S70,56.85,75,56.85,83.7,53.19,83.7,47.71Z"/><path class="cls-1" d="M116.08,48.69H96.46c.35,4.9,4.1,8.16,9.23,8.16a9.25,9.25,0,0,0,7.18-3.08l1.78,2a11.53,11.53,0,0,1-9.05,3.84c-7.31,0-12.31-5-12.31-11.95S98.15,35.8,104.75,35.8s11.38,4.86,11.38,11.91C116.13,48,116.08,48.33,116.08,48.69ZM96.46,46.32h16.63a8.33,8.33,0,0,0-16.63,0Z"/><path class="cls-1" d="M117.91,59.44h22.3v2.14h-22.3Z"/><path class="cls-1" d="M146.63,28.22h12.71c10,0,16.73,6.42,16.73,15.61s-6.74,15.61-16.73,15.61H146.63Zm12.53,28.36c8.3,0,13.65-5.26,13.65-12.75s-5.35-12.76-13.65-12.76h-9.23V56.58Z"/><path class="cls-1" d="M203.23,48.69H183.6c.36,4.9,4.1,8.16,9.23,8.16A9.24,9.24,0,0,0,200,53.77l1.79,2a11.55,11.55,0,0,1-9.06,3.84c-7.31,0-12.31-5-12.31-11.95S185.3,35.8,191.9,35.8s11.37,4.86,11.37,11.91C203.27,48,203.23,48.33,203.23,48.69ZM183.6,46.32h16.64a8.34,8.34,0,0,0-16.64,0Z"/><path class="cls-1" d="M229,36,218.57,59.44h-3.26L204.92,36h3.3L217,56l8.88-20Z"/><path class="cls-1" d="M229.94,56.76l1.42-2.5a14.21,14.21,0,0,0,8.35,2.63c4.46,0,6.28-1.51,6.28-3.83,0-6.11-15.21-1.29-15.21-10.57,0-3.84,3.31-6.69,9.28-6.69a16,16,0,0,1,8.3,2.18L247,40.53a12,12,0,0,0-6.92-2c-4.24,0-6.11,1.65-6.11,3.88C234,48.73,249.16,44,249.16,53c0,4.06-3.57,6.69-9.68,6.69C235.6,59.66,231.86,58.41,229.94,56.76Z"/><path class="cls-1" d="M253,57.21a2.36,2.36,0,0,1,2.36-2.41,2.39,2.39,0,0,1,2.41,2.41,2.43,2.43,0,0,1-2.41,2.45A2.4,2.4,0,0,1,253,57.21Z"/><path class="cls-1" d="M263.74,28.57a2.29,2.29,0,0,1,2.32-2.23,2.25,2.25,0,0,1,2.32,2.19,2.32,2.32,0,0,1-4.64,0Zm.72,7.41h3.16V59.44h-3.16Z"/><path class="cls-1" d="M274.09,47.71a11.93,11.93,0,0,1,23.86,0,11.93,11.93,0,1,1-23.86,0Zm20.65,0c0-5.49-3.7-9.15-8.7-9.15s-8.74,3.66-8.74,9.15,3.75,9.14,8.74,9.14S294.74,53.19,294.74,47.71Z"/></svg>