<svg xmlns="http://www.w3.org/2000/svg" viewBox="0 0 300 60"><defs><style>.a,.b{fill:#0879b7;}.b{stroke:#002673;}.b,.e,.f{stroke-miterlimit:10;}.c{fill:#2188ff;}.d{fill:#fff;}.e,.f{fill:#002673;}.e{stroke:#0879b7;}.f{stroke:#175fb2;}</style></defs><path class="a" d="M3.32,42.56C3.32,35.34,8.85,30,16.25,30a12,12,0,0,1,9,3.6L23.6,35.27a9.82,9.82,0,0,0-7.29-2.93,10.22,10.22,0,1,0,0,20.43,9.63,9.63,0,0,0,7.29-3l1.66,1.66a12,12,0,0,1-9,3.64C8.82,55.1,3.32,49.8,3.32,42.56Z"/><path class="a" d="M27.62,45.63a9.12,9.12,0,0,1,8.81-9.41H37a9.09,9.09,0,0,1,9.48,8.67c0,.25,0,.49,0,.74a9.12,9.12,0,0,1-8.78,9.44H37a9.13,9.13,0,0,1-9.4-8.87A5.23,5.23,0,0,1,27.62,45.63Zm16.31,0c0-4.34-2.93-7.23-6.87-7.23s-6.91,2.89-6.91,7.23,3,7.21,6.91,7.21S43.93,50,43.93,45.63Z"/><path class="a" d="M68.48,28.75V54.89H66.11V51.23A8,8,0,0,1,59,55.06c-5.28,0-9.23-3.83-9.23-9.43s4-9.41,9.23-9.41A8.07,8.07,0,0,1,66,39.89V28.75ZM66,45.63c0-4.34-3-7.23-6.87-7.23s-6.9,2.89-6.9,7.23,2.95,7.21,6.89,7.21S66,50,66,45.63Z"/><path class="a" d="M91.58,46.4H76.08c.28,3.87,3.24,6.44,7.29,6.44A7.28,7.28,0,0,0,89,50.41L90.45,52a9.09,9.09,0,0,1-7.15,3c-5.77,0-9.72-3.94-9.72-9.43s3.84-9.37,9-9.37,9,3.84,9,9.41C91.61,45.86,91.58,46.12,91.58,46.4Zm-15.5-1.87H89.21a6.58,6.58,0,0,0-13.13,0Z"/><path class="a" d="M93,54.89h17.61v1.69H93Z"/><path class="a" d="M115.7,30.24h10c7.89,0,13.21,5.07,13.21,12.32s-5.32,12.33-13.21,12.33h-10Zm9.89,22.39c6.56,0,10.78-4.15,10.78-10.07s-4.22-10.07-10.78-10.07h-7.28V52.63Z"/><path class="a" d="M160.4,46.4H144.89c.29,3.87,3.24,6.44,7.29,6.44a7.28,7.28,0,0,0,5.67-2.43L159.26,52a9.1,9.1,0,0,1-7.16,3c-5.77,0-9.72-3.94-9.72-9.43s3.86-9.37,9.07-9.37,9,3.84,9,9.41C160.43,45.86,160.4,46.12,160.4,46.4Zm-15.51-1.87H158a6.59,6.59,0,0,0-13.15,0Z"/><path class="a" d="M180.75,36.38l-8.24,18.51h-2.57l-8.21-18.51h2.61l6.93,15.79,7-15.79Z"/><path class="a" d="M181.49,52.77l1.12-2a11.19,11.19,0,0,0,6.59,2.08c3.53,0,5-1.2,5-3,0-4.82-12-1-12-8.35,0-3,2.62-5.28,7.33-5.28A12.64,12.64,0,0,1,196,37.94L195,40a9.39,9.39,0,0,0-5.46-1.58c-3.35,0-4.83,1.3-4.83,3.06,0,5,12,1.26,12,8.36,0,3.21-2.82,5.29-7.65,5.29C186,55.06,183,54.08,181.49,52.77Z"/><path class="a" d="M199.7,53.13a1.86,1.86,0,0,1,1.82-1.9h0a1.9,1.9,0,0,1,1.91,1.87v0a1.92,1.92,0,0,1-1.91,1.93h0a1.89,1.89,0,0,1-1.86-1.92Z"/><path class="a" d="M208.18,30.51A1.81,1.81,0,0,1,210,28.75a1.78,1.78,0,0,1,1.83,1.72h0a1.83,1.83,0,0,1-3.66,0Zm.57,5.85h2.49V54.89h-2.49Z"/><path class="a" d="M216.35,45.63a9.43,9.43,0,1,1,9.43,9.43,9.42,9.42,0,0,1-9.43-9.43v0Zm16.31,0c0-4.34-2.92-7.23-6.87-7.23s-6.9,2.89-6.9,7.23,3,7.21,6.9,7.21S232.66,50,232.66,45.63Z"/><rect class="b" x="262.1" y="42.23" width="21.88" height="14.33" rx="1.63" transform="translate(546.07 98.79) rotate(-180)"/><circle class="c" cx="277.69" cy="49.19" r="3.03"/><circle class="d" cx="277.69" cy="49.19" r="1.35"/><circle class="c" cx="268.22" cy="49.19" r="3.03"/><circle class="d" cx="268.22" cy="49.19" r="1.35"/><rect class="e" x="255.69" y="48.84" width="8.44" height="2.26" transform="translate(209.94 309.88) rotate(-90)"/><polygon class="e" points="253.34 50.02 260.11 48.94 260.1 51 253.34 50.02"/><circle class="e" cx="253.39" cy="49.97" r="1.47"/><rect class="e" x="281.93" y="48.84" width="8.44" height="2.26" transform="translate(236.18 336.12) rotate(-90)"/><polygon class="f" points="292.73 50.02 285.95 48.94 285.97 51 292.73 50.02"/><circle class="e" cx="292.67" cy="49.97" r="1.47"/><rect class="e" x="267.52" y="38.8" width="11.3" height="2.26" transform="translate(546.33 79.87) rotate(-180)"/><rect class="e" x="268.94" y="35.58" width="8.44" height="2.26" transform="translate(546.33 73.43) rotate(-180)"/><polygon class="e" points="273.21 30.14 272.13 36.91 274.19 36.9 273.21 30.14"/><circle class="e" cx="273.16" cy="30.19" r="1.47"/></svg>