<!-- Generated by IcoMoon.io -->
<svg version="1.1" xmlns="http://www.w3.org/2000/svg" width="20" height="20" viewBox="0 0 20 20">
<title>atom</title>
<path fill="#fff" d="M17.080 7.522c-1.819-0.775-4.263-1.275-6.875-1.412-0.417-0.025-0.823-0.033-1.208-0.033 1.932-2.358 4.002-3.942 5.364-3.992 0.268-0.011 0.496 0.046 0.678 0.163 0.588 0.382 0.754 1.473 0.454 2.992-0.033 0.208 0.1 0.411 0.3 0.45 0.208 0.042 0.408-0.092 0.45-0.3 0.375-1.9 0.1-3.205-0.783-3.782-0.317-0.207-0.7-0.304-1.125-0.288-1.708 0.064-4.117 1.917-6.325 4.767-0.962 0.029-1.867 0.108-2.693 0.239-0.538-2.414-0.325-4.147 0.495-4.564 0.115-0.061 0.238-0.092 0.381-0.103 0.581-0.045 1.383 0.329 2.258 1.058 0.162 0.133 0.405 0.117 0.538-0.050 0.136-0.162 0.112-0.4-0.050-0.538-1.050-0.87-2.018-1.295-2.81-1.237-0.238 0.021-0.463 0.082-0.669 0.183-0.992 0.506-1.392 1.939-1.142 4.032 0.058 0.433 0.133 0.885 0.242 1.35-2.734 0.547-4.476 1.642-4.551 3.020-0.050 0.975 0.721 1.903 2.233 2.685 0.187 0.096 0.418 0.025 0.517-0.167 0.095-0.187 0.025-0.417-0.167-0.513-1.208-0.622-1.858-1.323-1.819-1.965 0.042-0.9 1.477-1.825 3.967-2.317 0.225 0.828 0.517 1.693 0.875 2.575-0.848 1.573-1.463 3.123-1.781 4.5-0.467 2.054-0.217 3.517 0.717 4.123 0.3 0.195 0.65 0.292 1.039 0.292 0.779 0 1.723-0.383 2.789-1.143 0.175-0.125 0.213-0.362 0.092-0.533s-0.361-0.213-0.533-0.088c-1.287 0.919-2.37 1.227-2.968 0.836-0.633-0.412-0.772-1.619-0.383-3.313 0.267-1.155 0.756-2.442 1.423-3.767 0.167 0.365 0.342 0.73 0.525 1.094 1.188 2.33 2.642 4.356 4.092 5.704 1.155 1.075 2.228 1.636 3.113 1.636 0.292 0 0.567-0.063 0.813-0.186 0.954-0.488 1.367-1.842 1.165-3.813-0.187-1.844-0.883-4.092-1.962-6.333-0.092-0.189-0.32-0.269-0.508-0.18-0.192 0.092-0.275 0.321-0.183 0.51 2.242 4.668 2.4 8.492 1.142 9.133-1.325 0.677-4.52-1.963-6.992-6.817-0.283-0.546-0.531-1.083-0.75-1.608 0.283-0.507 0.583-1.017 0.912-1.525 0.329-0.503 0.672-0.99 1.020-1.454h0.328c0.45 0 0.938 0.008 1.445 0.040 5.442 0.286 9.146 2.133 9.070 3.612-0.033 0.637-0.77 1.282-2.021 1.767-0.195 0.080-0.293 0.3-0.217 0.497 0.058 0.15 0.2 0.243 0.355 0.243 0.048 0 0.095-0.008 0.139-0.025 1.588-0.617 2.458-1.463 2.508-2.442 0.058-1.108-0.975-2.175-2.917-3zM6.733 7.875c-0.225 0.346-0.433 0.689-0.637 1.037-0.243-0.64-0.443-1.258-0.603-1.846 0.594-0.092 1.237-0.158 1.925-0.2-0.233 0.325-0.462 0.662-0.683 1.008zM10.004 8.854c-0.633 0-1.146 0.513-1.146 1.146s0.513 1.146 1.146 1.146v0c0.633 0 1.146-0.513 1.146-1.146s-0.513-1.146-1.146-1.146v0z"></path>
</svg>
