<!-- Generated by IcoMoon.io -->
<svg version="1.1" xmlns="http://www.w3.org/2000/svg" width="20" height="20" viewBox="0 0 20 20">
<title>codepen</title>
<desc>Logo for website with link to homepage</desc>
<path fill="#fff" d="M20 6.818l-0.015-0.072-0.014-0.042c-0.008-0.020-0.015-0.042-0.025-0.062-0.003-0.015-0.013-0.028-0.017-0.042l-0.029-0.056-0.025-0.042-0.037-0.050-0.038-0.038-0.050-0.038-0.038-0.025-0.050-0.037-0.037-0.033-0.012-0.017-9.129-6.107c-0.289-0.193-0.663-0.193-0.952 0l-9.253 6.177-0.032 0.033-0.042 0.047-0.031 0.038-0.042 0.050c-0.017 0.014-0.025 0.025-0.025 0.038l-0.042 0.050-0.017 0.050c-0.017 0.008-0.017 0.033-0.025 0.058l-0.008 0.042c-0.016 0.026-0.016 0.051-0.016 0.076v6.248c0 0.037 0.003 0.075 0.008 0.112l0.008 0.038c0.004 0.025 0.008 0.050 0.017 0.072l0.012 0.042c0.008 0.023 0.013 0.044 0.023 0.063l0.018 0.042c0 0.008 0.012 0.033 0.025 0.050l0.025 0.033c0.012 0.008 0.025 0.033 0.038 0.050l0.025 0.033 0.033 0.033c0.008 0.011 0.008 0.025 0.025 0.025l0.050 0.035 0.033 0.025 0.008 0.012 9.142 6.108c0.137 0.1 0.313 0.136 0.475 0.136s0.325-0.050 0.475-0.15l9.298-6.172 0.043-0.048 0.027-0.037 0.033-0.050 0.025-0.042 0.025-0.058 0.013-0.043 0.025-0.064 0.012-0.037 0.025-0.067v-6.25c0-0.042 0-0.079-0.013-0.117l-0.012-0.038 0.037 0.003zM10.008 12.052l-3.042-2.033 3.042-2.035 3.042 2.033zM9.147 6.49l-3.728 2.492-3.011-2.013 6.738-4.492zM3.872 10.017l-2.152 1.442v-2.876zM5.419 11.059l3.728 2.492v4.017l-6.738-4.492 3.015-2.014zM10.867 13.551l3.728-2.483 3.011 2.017-6.739 4.492zM16.142 10.026l2.152-1.433v2.88zM14.596 8.992l-3.727-2.492v-4.025l6.738 4.492-3.010 2.013z"></path>
</svg>
