<!-- Generated by IcoMoon.io -->
<svg version="1.1" xmlns="http://www.w3.org/2000/svg" width="20" height="20" viewBox="0 0 20 20">
<title>codecademy</title>
<path fill="#fff" d="M19.856 16.442h-4.663c-0.078 0-0.142 0.048-0.142 0.143v1.262c0 0.078 0.048 0.142 0.143 0.142h4.662c0.080 0 0.143-0.037 0.143-0.137v-1.262c0-0.088-0.048-0.138-0.144-0.138v-0.012zM13.719 2.054c0.013 0.029 0.025 0.057 0.039 0.1v15.658c0 0.051-0.017 0.080-0.031 0.095-0.026 0.031-0.064 0.050-0.107 0.050-0.002 0-0.004-0-0.005-0h-13.487c-0.032 0-0.063 0-0.081-0.017-0.029-0.028-0.047-0.066-0.047-0.109 0-0.001 0-0.002 0-0.003v0-15.691c0-0.063 0.033-0.112 0.080-0.125h13.535c0.033 0 0.080 0.014 0.096 0.028v0.013zM1.515 16.313c0 0.061 0.032 0.113 0.080 0.128h10.536c0.048-0.016 0.080-0.063 0.080-0.128v-12.642c0-0.061-0.032-0.112-0.082-0.125h-10.533c-0.047 0.017-0.080 0.061-0.080 0.125l-0.002 12.642zM5.827 9.334c0.542 0 0.845 0.148 1.163 0.516 0.048 0.063 0.128 0.078 0.192 0.029l0.862-0.767c0.062-0.037 0.048-0.137 0.017-0.187-0.529-0.637-1.295-1.037-2.283-1.037-1.325 0-2.325 0.663-2.713 1.838-0.137 0.412-0.2 0.938-0.2 1.649 0 0.713 0.063 1.237 0.212 1.65 0.388 1.188 1.388 1.838 2.712 1.838 1 0 1.763-0.4 2.287-1.013 0.038-0.062 0.050-0.137-0.012-0.188l-0.864-0.762c-0.061-0.039-0.136-0.039-0.187 0.023-0.325 0.375-0.662 0.575-1.212 0.575-0.588 0-1.038-0.288-1.225-0.862-0.113-0.325-0.138-0.725-0.138-1.236 0-0.513 0.037-0.89 0.15-1.226 0.2-0.549 0.638-0.839 1.238-0.839z"></path>
</svg>
