<!-- Generated by IcoMoon.io -->
<svg version="1.1" xmlns="http://www.w3.org/2000/svg" width="20" height="20" viewBox="0 0 20 20">
<title>freecodecamp</title>
<path fill="#fff" d="M19.973 10.264c0 2.083-0.712 3.932-2.165 5.567-0.529 0.607-0.953 0.897-1.24 0.897-0.101 0-0.213-0.027-0.288-0.104-0.077-0.080-0.125-0.186-0.125-0.292 0-0.157 0.188-0.396 0.562-0.741 1.512-1.447 2.273-3.246 2.273-5.38 0-2.372-0.786-4.293-2.347-5.78-0.312-0.285-0.475-0.522-0.475-0.71 0-0.1 0.051-0.213 0.137-0.287 0.087-0.075 0.188-0.124 0.288-0.124 0.348 0 0.874 0.424 1.535 1.272 1.248 1.586 1.873 3.496 1.873 5.705zM0 9.735c0-2.082 0.712-3.932 2.165-5.567 0.529-0.607 0.952-0.897 1.242-0.897 0.099 0 0.212 0.027 0.287 0.104 0.075 0.079 0.125 0.157 0.125 0.262 0 0.157-0.188 0.397-0.562 0.765-1.484 1.453-2.259 3.246-2.259 5.385 0 2.372 0.793 4.298 2.351 5.779 0.317 0.287 0.474 0.527 0.474 0.712 0 0.106-0.051 0.213-0.133 0.29-0.082 0.078-0.188 0.133-0.293 0.133-0.363 0-0.861-0.425-1.523-1.265-1.261-1.558-1.873-3.458-1.873-5.701zM14.749 15.459h-9.153c-0.292 0-0.557-0.239-0.557-0.555 0-0.319 0.237-0.557 0.557-0.557h9.153c0.29 0 0.557 0.237 0.557 0.557-0.005 0.321-0.239 0.555-0.557 0.555zM9.749 8.027c0.164-0.021 0.287 0.513 0.301 0.624 0.038 0.294-0.059 0.578-0.193 0.836-0.497 0.971-1.648 1.753-1.343 2.979 0.138 0.529 0.412 0.897 1.262 1.349-0.288 0.099-0.687-0.093-0.912-0.251-0.999-0.68-1.636-1.797-1.573-3.016 0.025-0.387 0.1-0.767 0.199-1.14 0.313-1.068 0.949-2.001 1.323-3.039 0.188-0.499 0.325-1.103 0.176-1.628-0.075-0.257-0.213-0.499-0.387-0.707-0.051-0.063-0.337-0.388-0.449-0.35 0.5-0.188 0.949-0.013 1.385 0.249 0.337 0.2 0.6 0.487 0.799 0.813 0.374 0.599 0.524 1.285 0.599 1.984 0.026 0.288-0.012 0.987 0.325 1.125 0.349 0.149 0.624-0.437 0.699-0.675 0.163-0.537-0.050-1.049-0.262-1.548 0.051 0.101 0.238 0.212 0.324 0.288l0.3 0.287c0.362 0.374 0.587 0.837 0.737 1.337 0.137 0.449 0.2 0.911 0.225 1.361 0.062 0.936-0.15 1.898-0.524 2.759-0.162 0.386-0.374 0.748-0.649 1.061-0.266 0.311-0.623 0.511-0.911 0.797 0.673-0.674 1.032-1.772 0.936-2.609-0.050-0.461-0.199-0.886-0.549-1.31 0 0 0.037 0.298 0.072 0.486 0.063 0.412-0.213 0.85-0.537 0.799-0.237-0.024-0.113-0.536-0.087-0.698 0.087-0.487-0.025-0.962-0.203-1.411-0.174-0.424-0.5-0.762-0.998-0.686z"></path>
</svg>
