<!-- Generated by IcoMoon.io -->
<svg version="1.1" xmlns="http://www.w3.org/2000/svg" width="25" height="25" viewBox="0 0 25 25">
<title>gatsby</title>
<path fill="#639" d="M12.501 0.007c-6.953 0-12.494 5.541-12.494 12.493s5.541 12.495 12.493 12.495 12.494-5.541 12.494-12.494-5.54-12.494-12.493-12.494zM2.723 12.609l9.67 9.67c-5.324 0-9.67-4.346-9.67-9.67zM14.674 22.061l-11.733-11.733c0.976-4.346 4.889-7.605 9.559-7.605 3.243 0.007 6.118 1.576 7.912 3.994l0.019 0.027-1.411 1.194c-1.456-2.111-3.861-3.476-6.585-3.476-0.015 0-0.029 0-0.044 0h0.002c-0.015-0-0.033-0-0.051-0-3.435 0-6.355 2.2-7.429 5.268l-0.017 0.055 10.212 10.214c2.5-0.87 4.454-3.042 4.998-5.65h-4.237v-1.847h6.41c0 4.672-3.259 8.583-7.605 9.56z"></path>
</svg>
