<!-- Generated by IcoMoon.io -->
<svg version="1.1" xmlns="http://www.w3.org/2000/svg" width="20" height="20" viewBox="0 0 20 20">
<title>GitHub</title>
<symbol id="icon-github" viewBox="0 0 20 20">
<path d="M10 0.745c-5.24 0-9.49 4.248-9.49 9.49 0 4.193 2.719 7.75 6.49 9.005 0.474 0.088 0.649-0.206 0.649-0.457 0-0.226-0.009-0.974-0.013-1.767-2.64 0.574-3.197-1.12-3.197-1.12-0.432-1.097-1.054-1.389-1.054-1.389-0.861-0.589 0.065-0.577 0.065-0.577 0.953 0.067 1.455 0.978 1.455 0.978 0.847 1.451 2.22 1.031 2.762 0.789 0.085-0.613 0.331-1.032 0.602-1.269-2.108-0.24-4.324-1.054-4.324-4.69 0-1.036 0.371-1.883 0.978-2.547-0.099-0.239-0.424-1.204 0.092-2.511 0 0 0.797-0.255 2.61 0.973 0.757-0.21 1.569-0.316 2.375-0.319 0.806 0.004 1.619 0.109 2.377 0.319 1.811-1.228 2.607-0.973 2.607-0.973 0.517 1.307 0.192 2.272 0.093 2.511 0.608 0.665 0.977 1.511 0.977 2.547 0 3.645-2.22 4.447-4.333 4.682 0.34 0.294 0.644 0.872 0.644 1.757 0 1.27-0.011 2.292-0.011 2.604 0 0.253 0.171 0.549 0.652 0.455 3.768-1.256 6.484-4.812 6.484-9.004 0-5.241-4.249-9.49-9.49-9.49z"></path>
</symbol>
</svg>
