<!-- Generated by IcoMoon.io -->
<svg version="1.1" xmlns="http://www.w3.org/2000/svg" width="19" height="20" viewBox="0 0 19 20">
<title>github</title>
<path fill="#743ad5" d="M7.143 13.571c0 0.815-0.424 2.143-1.429 2.143s-1.429-1.328-1.429-2.143 0.424-2.143 1.429-2.143 1.429 1.328 1.429 2.143zM14.286 13.571c0 0.815-0.424 2.143-1.429 2.143s-1.429-1.328-1.429-2.143 0.424-2.143 1.429-2.143 1.429 1.328 1.429 2.143zM16.071 13.571c0-1.708-1.038-3.214-2.857-3.214-0.737 0-1.44 0.134-2.176 0.234-0.58 0.089-1.161 0.123-1.752 0.123s-1.172-0.033-1.752-0.123c-0.725-0.1-1.44-0.234-2.176-0.234-1.819 0-2.857 1.507-2.857 3.214 0 3.415 3.125 3.94 5.848 3.94h1.875c2.723 0 5.848-0.525 5.848-3.94zM18.571 11.607c0 1.239-0.123 2.556-0.681 3.694-1.473 2.98-5.525 3.27-8.426 3.27-2.946 0-7.243-0.257-8.772-3.27-0.569-1.127-0.692-2.455-0.692-3.694 0-1.629 0.446-3.17 1.518-4.42-0.201-0.614-0.301-1.261-0.301-1.897 0-0.837 0.19-1.674 0.569-2.433 1.763 0 2.891 0.77 4.23 1.819 1.127-0.268 2.288-0.391 3.449-0.391 1.049 0 2.109 0.112 3.125 0.357 1.328-1.038 2.455-1.786 4.196-1.786 0.379 0.759 0.569 1.596 0.569 2.433 0 0.636-0.1 1.272-0.301 1.875 1.071 1.261 1.518 2.813 1.518 4.442z"></path>
</svg>