<!-- Generated by IcoMoon.io -->
<svg version="1.1" xmlns="http://www.w3.org/2000/svg" width="23" height="25" viewBox="0 0 23 25">
<title>github-alt</title>
<path fill="#743ad5" d="M8.929 16.964c0 1.018-0.53 2.679-1.786 2.679s-1.786-1.66-1.786-2.679 0.53-2.679 1.786-2.679 1.786 1.66 1.786 2.679zM17.857 16.964c0 1.018-0.53 2.679-1.786 2.679s-1.786-1.66-1.786-2.679 0.53-2.679 1.786-2.679 1.786 1.66 1.786 2.679zM20.089 16.964c0-2.134-1.297-4.018-3.571-4.018-0.921 0-1.8 0.167-2.72 0.293-0.725 0.112-1.451 0.153-2.19 0.153s-1.465-0.042-2.19-0.153c-0.907-0.126-1.8-0.293-2.72-0.293-2.274 0-3.571 1.883-3.571 4.018 0 4.269 3.906 4.925 7.31 4.925h2.344c3.404 0 7.31-0.656 7.31-4.925zM23.214 14.509c0 1.549-0.153 3.195-0.851 4.618-1.842 3.725-6.906 4.088-10.533 4.088-3.683 0-9.054-0.321-10.965-4.088-0.711-1.409-0.865-3.069-0.865-4.618 0-2.037 0.558-3.962 1.897-5.525-0.251-0.767-0.377-1.576-0.377-2.372 0-1.046 0.237-2.093 0.711-3.041 2.204 0 3.613 0.963 5.287 2.274 1.409-0.335 2.86-0.488 4.311-0.488 1.311 0 2.637 0.14 3.906 0.446 1.66-1.297 3.069-2.232 5.246-2.232 0.474 0.949 0.711 1.995 0.711 3.041 0 0.795-0.126 1.59-0.377 2.344 1.339 1.576 1.897 3.516 1.897 5.552z"></path>
</svg>
