<!-- Generated by IcoMoon.io -->
<svg version="1.1" xmlns="http://www.w3.org/2000/svg" width="25" height="25" viewBox="0 0 25 25">
<title>go</title>
<path fill="#00add8" d="M1.886 11.161c-0.049 0-0.060-0.024-0.036-0.061l0.256-0.328c0.024-0.036 0.084-0.060 0.133-0.060h4.346c0.048 0 0.060 0.036 0.036 0.073l-0.207 0.316c-0.024 0.037-0.085 0.073-0.122 0.073zM0.049 12.281c-0.049 0-0.061-0.024-0.036-0.060l0.255-0.329c0.024-0.036 0.085-0.060 0.134-0.060h5.55c0.049 0 0.073 0.036 0.060 0.073l-0.097 0.292c-0.013 0.049-0.060 0.073-0.109 0.073zM2.995 13.401c-0.049 0-0.061-0.036-0.036-0.073l0.17-0.304c0.024-0.036 0.073-0.073 0.122-0.073h2.434c0.049 0 0.073 0.036 0.073 0.085l-0.024 0.292c0 0.049-0.049 0.085-0.085 0.085zM15.629 10.943c-0.767 0.195-1.291 0.341-2.045 0.535-0.183 0.048-0.195 0.060-0.354-0.122-0.181-0.207-0.316-0.341-0.571-0.463-0.768-0.377-1.51-0.268-2.203 0.182-0.828 0.535-1.254 1.327-1.242 2.313 0.011 0.974 0.681 1.777 1.643 1.911 0.828 0.109 1.521-0.182 2.070-0.803 0.109-0.134 0.206-0.28 0.328-0.451h-2.349c-0.255 0-0.317-0.158-0.231-0.365 0.158-0.377 0.45-1.010 0.621-1.327 0.052-0.116 0.167-0.195 0.3-0.195 0.002 0 0.003 0 0.005 0h4.43c-0.024 0.329-0.024 0.657-0.073 0.986-0.136 0.91-0.49 1.72-1.007 2.398l0.009-0.013c-0.876 1.156-2.021 1.875-3.469 2.069-1.193 0.158-2.301-0.073-3.274-0.802-0.901-0.682-1.413-1.583-1.546-2.703-0.158-1.327 0.231-2.52 1.034-3.567 0.865-1.131 2.008-1.85 3.408-2.105 1.144-0.207 2.24-0.073 3.225 0.596 0.646 0.427 1.107 1.010 1.412 1.717 0.073 0.109 0.024 0.171-0.122 0.207zM19.658 17.674c-1.108-0.025-2.119-0.342-2.971-1.072-0.69-0.584-1.168-1.401-1.312-2.328l-0.003-0.021c-0.219-1.375 0.158-2.593 0.986-3.676 0.889-1.169 1.959-1.777 3.408-2.032 1.242-0.219 2.41-0.098 3.469 0.621 0.961 0.656 1.558 1.546 1.717 2.714 0.206 1.644-0.268 2.982-1.4 4.127-0.803 0.816-1.79 1.326-2.922 1.557-0.328 0.061-0.656 0.073-0.973 0.11zM22.554 12.756c-0.011-0.158-0.011-0.28-0.035-0.402-0.219-1.205-1.327-1.886-2.483-1.619-1.132 0.255-1.863 0.974-2.13 2.118-0.219 0.95 0.244 1.911 1.12 2.301 0.67 0.292 1.339 0.255 1.984-0.073 0.961-0.5 1.484-1.278 1.545-2.325z"></path>
</svg>
