<!-- Generated by IcoMoon.io -->
<svg version="1.1" xmlns="http://www.w3.org/2000/svg" width="23" height="20" viewBox="0 0 23 20">
<title>jsfiddle</title>
<path fill="#fff" d="M20.089 8.616c1.618 0.67 2.768 2.254 2.768 4.096 0 2.444-2.020 4.431-4.498 4.431-0.089 0-0.167-0.011-0.246-0.011h-13.583c-2.5-0.145-4.531-2.054-4.531-4.531 0-1.663 0.904-3.114 2.254-3.906-0.089-0.29-0.134-0.592-0.134-0.915 0-1.708 1.395-3.092 3.136-3.092 0.714 0 1.384 0.246 1.92 0.647 1.094-2.254 3.415-3.817 6.127-3.817 3.761 0 6.797 3.002 6.797 6.696 0 0.134-0.011 0.268-0.011 0.402zM5.223 11.585c0 1.886 1.484 2.946 3.259 2.946 1.094 0 1.886-0.346 2.679-1.105-0.324-0.402-0.681-0.792-1.016-1.194-0.458 0.446-0.96 0.725-1.607 0.725-0.792 0-1.473-0.525-1.473-1.35 0-0.815 0.681-1.35 1.451-1.35 2.455 0 2.98 4.286 6.551 4.286 1.741 0 3.214-1.094 3.214-2.924 0-1.853-1.484-2.935-3.248-2.935-1.094 0-1.908 0.313-2.69 1.083 0.357 0.391 0.692 0.804 1.038 1.205 0.446-0.435 0.949-0.714 1.585-0.714 0.737 0 1.473 0.525 1.473 1.306 0 0.859-0.625 1.406-1.462 1.406-2.377 0-3.013-4.286-6.496-4.286-1.73 0-3.259 1.060-3.259 2.902z"></path>
</svg>
