<!-- Generated by IcoMoon.io -->
<svg version="1.1" xmlns="http://www.w3.org/2000/svg" width="25" height="25" viewBox="0 0 25 25">
<title>react</title>
<path fill="#61dafb" d="M12.5 10.272c-1.231 0-2.228 0.998-2.228 2.228s0.998 2.228 2.228 2.228v0c1.231 0 2.228-0.998 2.228-2.228s-0.998-2.228-2.228-2.228v0zM6.258 16.932l-0.492-0.125c-3.665-0.926-5.767-2.498-5.767-4.311s2.102-3.385 5.767-4.311l0.492-0.124 0.139 0.488c0.425 1.453 0.908 2.69 1.484 3.873l-0.064-0.146 0.105 0.222-0.105 0.222c-0.513 1.039-0.996 2.275-1.376 3.555l-0.044 0.172zM5.539 9.323c-2.785 0.782-4.495 1.979-4.495 3.173 0 1.193 1.709 2.39 4.495 3.173 0.4-1.266 0.817-2.316 1.299-3.331l-0.067 0.158c-0.415-0.858-0.833-1.909-1.181-2.99l-0.051-0.183zM18.742 16.932l-0.139-0.489c-0.425-1.452-0.908-2.688-1.484-3.87l0.063 0.144-0.105-0.222 0.105-0.222c0.512-1.038 0.996-2.274 1.377-3.554l0.044-0.173 0.139-0.488 0.493 0.124c3.664 0.926 5.766 2.498 5.766 4.312s-2.102 3.385-5.766 4.311zM18.23 12.496c0.5 1.082 0.914 2.146 1.231 3.173 2.786-0.783 4.495-1.98 4.495-3.173 0-1.194-1.709-2.39-4.495-3.173-0.399 1.265-0.816 2.315-1.298 3.329l0.067-0.156zM5.531 9.318l-0.139-0.486c-1.030-3.631-0.718-6.233 0.857-7.142 1.545-0.892 4.025 0.161 6.624 2.829l0.354 0.364-0.354 0.364c-0.895 0.93-1.724 1.939-2.47 3.010l-0.053 0.080-0.141 0.201-0.245 0.021c-1.465 0.118-2.809 0.343-4.113 0.672l0.17-0.036zM7.506 2.411c-0.279 0-0.526 0.060-0.734 0.18-1.035 0.597-1.219 2.672-0.505 5.472 0.946-0.223 2.094-0.407 3.265-0.514l0.102-0.008c0.698-0.988 1.4-1.852 2.153-2.667l-0.016 0.017c-1.625-1.582-3.164-2.48-4.266-2.48zM17.495 23.622c-0.001 0-0.001 0 0 0-1.484 0-3.391-1.118-5.369-3.149l-0.354-0.364 0.354-0.364c0.895-0.93 1.724-1.939 2.469-3.011l0.053-0.080 0.141-0.201 0.244-0.021c1.465-0.117 2.81-0.342 4.115-0.671l-0.17 0.036 0.492-0.124 0.14 0.487c1.028 3.629 0.717 6.232-0.858 7.14-0.351 0.202-0.772 0.321-1.22 0.321-0.012 0-0.025-0-0.037-0l0.002 0zM13.228 20.1c1.625 1.582 3.164 2.48 4.266 2.48h0.001c0.278 0 0.526-0.060 0.733-0.18 1.035-0.597 1.22-2.673 0.505-5.473-0.946 0.223-2.096 0.407-3.267 0.514l-0.102 0.007c-0.698 0.988-1.399 1.853-2.152 2.668l0.016-0.017zM19.469 9.318l-0.492-0.124c-1.135-0.294-2.481-0.519-3.858-0.63l-0.086-0.006-0.244-0.021-0.141-0.201c-0.798-1.152-1.626-2.161-2.529-3.098l0.007 0.008-0.354-0.364 0.354-0.364c2.598-2.667 5.077-3.72 6.624-2.829 1.575 0.908 1.887 3.51 0.858 7.141zM15.365 7.542c1.19 0.108 2.32 0.284 3.369 0.522 0.715-2.8 0.53-4.875-0.505-5.472-1.029-0.595-2.964 0.317-5 2.3 0.737 0.798 1.438 1.662 2.082 2.57l0.054 0.080zM7.506 23.622c-0.011 0-0.023 0-0.036 0-0.449 0-0.869-0.119-1.232-0.327l0.012 0.006c-1.575-0.907-1.888-3.509-0.857-7.14l0.138-0.487 0.492 0.124c1.203 0.303 2.53 0.517 3.943 0.634l0.245 0.021 0.14 0.201c0.799 1.152 1.628 2.162 2.53 3.099l-0.007-0.008 0.354 0.364-0.354 0.364c-1.977 2.031-3.883 3.149-5.366 3.149zM6.267 16.927c-0.715 2.8-0.53 4.876 0.505 5.473 1.028 0.586 2.961-0.318 5-2.3-0.737-0.798-1.438-1.663-2.083-2.571l-0.054-0.080c-1.273-0.114-2.421-0.299-3.543-0.556l0.175 0.034zM12.5 17.581c-0.857 0-1.739-0.037-2.621-0.11l-0.245-0.021-0.141-0.201c-0.425-0.6-0.89-1.321-1.326-2.062l-0.081-0.148c-0.353-0.592-0.758-1.353-1.132-2.131l-0.082-0.19-0.104-0.222 0.104-0.222c0.456-0.968 0.861-1.728 1.295-2.47l-0.081 0.149c0.431-0.746 0.905-1.49 1.406-2.21l0.141-0.201 0.245-0.021c0.785-0.071 1.699-0.111 2.621-0.111s1.836 0.040 2.738 0.119l-0.117-0.008 0.244 0.021 0.14 0.201c0.919 1.301 1.793 2.787 2.541 4.344l0.081 0.188 0.105 0.222-0.105 0.222c-0.826 1.743-1.7 3.229-2.687 4.629l0.065-0.097-0.14 0.201-0.244 0.021c-0.882 0.073-1.765 0.11-2.622 0.11zM10.211 16.452c1.542 0.116 3.035 0.116 4.578 0 0.784-1.129 1.546-2.425 2.209-3.778l0.079-0.178c-0.74-1.53-1.501-2.826-2.353-4.055l0.065 0.099c-0.685-0.055-1.483-0.087-2.289-0.087s-1.603 0.031-2.393 0.093l0.104-0.007c-0.788 1.131-1.55 2.427-2.211 3.781l-0.077 0.175c0.743 1.531 1.505 2.827 2.355 4.057l-0.066-0.101z"></path>
</svg>
