<!-- Generated by IcoMoon.io -->
<svg version="1.1" xmlns="http://www.w3.org/2000/svg" width="25" height="25" viewBox="0 0 25 25">
<title>sass</title>
<path fill="#c69" d="M12.5 0c6.903 0 12.5 5.597 12.5 12.5s-5.597 12.5-12.5 12.5-12.5-5.597-12.5-12.5 5.597-12.5 12.5-12.5zM10.016 16.665c0.182 0.672 0.162 1.3-0.025 1.867l-0.068 0.187c-0.025 0.064-0.054 0.125-0.081 0.183-0.146 0.302-0.34 0.583-0.578 0.844-0.727 0.791-1.742 1.091-2.177 0.839-0.469-0.273-0.235-1.391 0.608-2.281 0.907-0.956 2.208-1.572 2.208-1.572v-0.003zM20.34 5.351c-0.565-2.222-4.247-2.952-7.731-1.714-2.072 0.736-4.317 1.894-5.93 3.403-1.92 1.793-2.225 3.355-2.099 4.008 0.445 2.303 3.601 3.809 4.899 4.927v0.006c-0.382 0.187-3.183 1.593-3.84 3.047-0.703 1.531 0.109 2.626 0.641 2.766 1.641 0.454 3.328-0.375 4.234-1.718 0.875-1.314 0.798-3.001 0.421-3.829 0.517-0.141 1.125-0.203 1.906-0.108 2.189 0.25 2.626 1.625 2.531 2.188-0.094 0.561-0.545 0.89-0.702 0.983-0.156 0.095-0.203 0.125-0.189 0.189 0.016 0.094 0.095 0.094 0.219 0.078 0.172-0.031 1.142-0.469 1.189-1.532 0.047-1.344-1.235-2.843-3.516-2.813-0.938 0.017-1.532 0.095-1.953 0.267-0.031-0.047-0.064-0.078-0.109-0.109-1.406-1.516-4.016-2.578-3.906-4.594 0.031-0.734 0.297-2.671 5-5.015 3.859-1.923 6.939-1.391 7.47-0.219 0.764 1.671-1.642 4.781-5.657 5.233-1.531 0.172-2.328-0.421-2.532-0.641-0.218-0.234-0.249-0.25-0.327-0.202-0.125 0.063-0.047 0.266 0 0.391 0.125 0.313 0.609 0.859 1.454 1.141 0.733 0.234 2.531 0.374 4.687-0.469 2.421-0.936 4.311-3.547 3.765-5.734z"></path>
</svg>
