<!-- Generated by IcoMoon.io -->
<svg version="1.1" xmlns="http://www.w3.org/2000/svg" width="25" height="25" viewBox="0 0 25 25">
<title>tailwindcss</title>
<path fill="#38b2ac" d="M12.501 5c-3.333 0-5.417 1.667-6.25 5 1.25-1.667 2.708-2.292 4.375-1.875 0.951 0.238 1.63 0.927 2.383 1.692 1.226 1.244 2.644 2.683 5.742 2.683 3.333 0 5.417-1.667 6.25-5-1.25 1.667-2.708 2.292-4.375 1.875-0.951-0.238-1.63-0.927-2.383-1.692-1.225-1.244-2.643-2.683-5.742-2.683zM6.251 12.5c-3.333 0-5.417 1.667-6.25 5 1.25-1.667 2.708-2.292 4.375-1.875 0.951 0.237 1.63 0.927 2.383 1.692 1.226 1.244 2.644 2.683 5.742 2.683 3.333 0 5.417-1.667 6.25-5-1.25 1.667-2.708 2.292-4.375 1.875-0.951-0.238-1.63-0.927-2.383-1.692-1.225-1.244-2.643-2.683-5.742-2.683z"></path>
</svg>
