<!-- Generated by IcoMoon.io -->
<svg version="1.1" xmlns="http://www.w3.org/2000/svg" width="25" height="25" viewBox="0 0 25 25">
<title>visualstudiocode</title>
<path fill="#743ad5" d="M24.115 2.695l-5.146-2.476c-0.197-0.097-0.43-0.154-0.675-0.154-0.43 0-0.819 0.174-1.101 0.456v0l-9.854 8.99-4.292-3.258c-0.173-0.132-0.391-0.212-0.629-0.212-0.27 0-0.516 0.103-0.701 0.272l-1.376 1.251c-0.21 0.191-0.341 0.466-0.341 0.771s0.131 0.579 0.339 0.769l0.001 0.001 3.722 3.396-3.722 3.396c-0.209 0.191-0.34 0.465-0.34 0.77s0.131 0.58 0.34 0.77l0.001 0.001 1.378 1.251c0.184 0.168 0.43 0.271 0.7 0.271 0.237 0 0.456-0.080 0.631-0.213l-0.003 0.002 4.292-3.258 9.854 8.99c0.281 0.282 0.67 0.456 1.1 0.456 0.245 0 0.478-0.057 0.684-0.158l-0.009 0.004 5.148-2.476c0.527-0.259 0.883-0.791 0.883-1.407 0-0 0-0.001 0-0.001v0-16.793c0-0 0-0 0-0 0-0.617-0.357-1.15-0.876-1.404l-0.009-0.004zM18.754 18.175l-7.477-5.675 7.477-5.675z"></path>
</svg>
