<!-- Generated by IcoMoon.io -->
<svg version="1.1" xmlns="http://www.w3.org/2000/svg" width="20" height="20" viewBox="0 0 20 20">
<title>youtube</title>
<path fill="#fff" d="M19.803 5.999c0 0-0.195-1.379-0.797-1.985-0.762-0.797-1.614-0.801-2.004-0.848-2.798-0.203-6.998-0.203-6.998-0.203h-0.008c0 0-4.2 0-6.998 0.203-0.391 0.047-1.242 0.051-2.004 0.848-0.602 0.606-0.793 1.985-0.793 1.985s-0.199 1.618-0.199 3.239v1.516c0 1.618 0.199 3.239 0.199 3.239s0.195 1.379 0.793 1.985c0.762 0.797 1.762 0.77 2.208 0.856 1.602 0.152 6.802 0.199 6.802 0.199s4.204-0.008 7.002-0.207c0.391-0.047 1.242-0.051 2.004-0.848 0.602-0.606 0.797-1.985 0.797-1.985s0.199-1.618 0.199-3.239v-1.516c-0.004-1.618-0.203-3.239-0.203-3.239zM7.933 12.594v-5.622l5.404 2.821-5.404 2.801z"></path>
</svg>
